<svg width="648" height="612" viewBox="0 0 648 612" fill="none" xmlns="http://www.w3.org/2000/svg">
<path d="M647.288 502.773C646.975 492.286 644.994 481.916 641.418 472.053C637.638 461.963 632.928 452.153 626.518 443.453C619.518 433.973 611.458 425.453 601.228 419.453C590.998 413.453 579.798 411.173 567.998 410.273C547.607 408.851 527.213 412.999 508.998 422.273C492.558 430.573 478.798 443.273 468.158 458.273C458.108 472.541 451.79 489.098 449.778 506.433C449.363 509.77 449.173 513.131 449.208 516.493C448.058 535.853 451.528 556.663 463.328 572.553C469.936 581.453 478.101 589.083 487.428 595.073C496.446 600.874 506.354 605.158 516.758 607.753C537.598 612.983 560.668 612.093 580.758 604.303C591.71 600.133 601.905 594.198 610.938 586.733C618.976 579.93 625.861 571.873 631.328 562.873C642.421 544.836 647.971 523.938 647.288 502.773ZM615.368 516.273C614.302 522.947 612.536 529.49 610.098 535.793C607.41 541.842 604.081 547.585 600.168 552.923C596.611 557.276 592.632 561.265 588.288 564.833C583.506 568.318 578.379 571.304 572.988 573.743C566.564 576.252 559.884 578.046 553.068 579.093C546.552 579.768 539.984 579.768 533.468 579.093C526.947 578.091 520.556 576.377 514.408 573.983C509.017 571.52 503.896 568.504 499.128 564.983C495.763 562.232 492.666 559.168 489.878 555.833C487.795 552.905 485.978 549.796 484.448 546.543C482.846 542.297 481.67 537.902 480.938 533.423C480.357 527.776 480.246 522.089 480.608 516.423C480.58 513.548 480.716 510.673 481.018 507.813C481.976 502.067 483.521 496.434 485.628 491.003C488.499 484.53 492.071 478.39 496.278 472.693C500.677 467.244 505.638 462.273 511.078 457.863C522.072 449.303 535.139 443.809 548.948 441.943C556.552 441.108 564.224 441.108 571.828 441.943C575.089 442.445 578.293 443.258 581.398 444.373C584.14 445.697 586.766 447.249 589.248 449.013C592.897 452.059 596.246 455.448 599.248 459.133C603.687 465.205 607.443 471.748 610.448 478.643C612.711 484.418 614.364 490.414 615.378 496.533C616.086 503.094 616.086 509.712 615.378 516.273H615.368Z" fill="#3777B7"/>
<path d="M138.276 188.444L60.8957 85.3599L215.044 58.9887L138.276 188.444Z" fill="#FFB03E"/>
<path d="M3.39842 502.392C-2.07158 516.972 -0.771568 532.722 6.09843 546.602C13.0984 560.742 26.1584 570.672 41.0984 575.182C56.0069 579.581 72.0086 578.386 86.0984 571.822C99.9584 565.392 111.448 555.012 121.018 543.222C131.178 530.732 139.198 516.732 147.658 503.022C151.896 496.019 156.502 489.246 161.458 482.732C163.978 479.482 166.628 476.322 169.458 473.312C170.728 471.952 172.038 470.652 173.388 469.372C174.498 468.302 172.588 469.952 173.808 469.002L174.558 468.412C175.44 467.745 176.366 467.136 177.328 466.592C177.468 466.512 178.828 465.912 177.768 466.352C178.118 466.202 178.458 466.062 178.818 465.942C179.178 465.822 179.528 465.732 179.878 465.612C181.138 465.222 178.958 465.612 180.258 465.612C180.688 465.612 181.118 465.612 181.548 465.612C180.268 465.612 181.548 465.612 181.868 465.722C182.16 465.782 182.448 465.862 182.728 465.962C181.578 465.552 183.348 466.392 183.558 466.532C182.638 465.922 183.898 466.862 183.988 466.942C184.348 467.272 184.688 467.632 184.988 467.992C185.698 468.742 185.228 468.272 185.088 468.102C185.398 468.492 185.698 468.892 185.998 469.292C187.248 471.022 188.398 472.842 189.498 474.672C193.858 481.892 197.298 489.602 201.198 497.062C208.698 511.452 218.898 524.432 231.888 534.272C238.728 539.452 246.058 543.932 254.288 546.512C262.774 549.286 272.006 548.648 280.028 544.732C287.338 541.162 293.348 535.282 299.168 529.732C305.508 523.672 311.565 517.339 317.338 510.732C320.225 507.399 323.032 504.029 325.758 500.622C327.478 498.472 327.758 495.092 325.438 493.182C323.378 491.442 319.828 491.182 317.988 493.502C312.522 500.322 306.745 506.912 300.658 513.272C297.758 516.305 294.795 519.275 291.768 522.182C290.258 523.632 288.768 525.072 287.188 526.482C286.518 527.102 285.838 527.712 285.188 528.322L284.258 529.142L283.498 529.792C283.892 529.465 283.852 529.495 283.378 529.882C281.948 531.022 280.518 532.142 278.998 533.162C278.308 533.612 277.618 534.052 276.908 534.472C276.478 534.722 276.058 534.962 275.618 535.192L274.748 535.642C275.158 535.452 275.188 535.432 274.858 535.582C273.273 536.243 271.646 536.8 269.988 537.252C268.428 537.672 270.908 537.182 269.308 537.392C268.798 537.462 268.308 537.532 267.788 537.582C266.771 537.674 265.75 537.71 264.728 537.692C264.638 537.692 262.958 537.602 264.098 537.692C263.678 537.692 263.248 537.602 262.828 537.552C261.898 537.432 260.968 537.272 260.048 537.072C259.128 536.872 258.358 536.682 257.528 536.442C257.028 536.302 256.528 536.142 256.038 535.982L255.038 535.642C255.548 535.822 255.498 535.802 254.898 535.582C251.34 534.118 247.915 532.352 244.658 530.302C243.788 529.752 242.938 529.202 242.088 528.622L241.238 528.042C242.108 528.642 240.728 527.672 240.688 527.652C239.038 526.452 237.418 525.192 235.838 523.892C232.879 521.448 230.064 518.833 227.408 516.062C226.168 514.772 224.978 513.432 223.798 512.062C222.618 510.692 224.408 512.822 223.338 511.522L222.338 510.342C221.672 509.542 221.042 508.732 220.448 507.912C218.075 504.786 215.881 501.527 213.878 498.152C209.708 491.152 206.358 483.672 202.588 476.442C200.697 472.735 198.61 469.129 196.338 465.642C194.038 462.152 191.388 458.562 187.568 456.592C179.398 452.382 170.868 457.232 164.888 462.882C159.059 468.638 153.807 474.952 149.208 481.732C139.658 495.212 131.718 509.732 122.578 523.432L121.128 525.592L120.448 526.592C120.388 526.682 119.448 527.972 120.148 527.032C119.048 528.592 117.925 530.132 116.778 531.652C114.668 534.452 112.468 537.192 110.168 539.842C107.868 542.492 105.268 545.252 102.628 547.782C101.382 548.982 100.102 550.149 98.7884 551.282L98.0784 551.892C98.9384 551.162 97.7484 552.162 97.6584 552.232C96.8684 552.872 96.0684 553.502 95.2684 554.112C92.488 556.231 89.5718 558.165 86.5384 559.902C85.7984 560.322 85.0484 560.732 84.2984 561.122L83.2984 561.652C83.1884 561.652 81.7984 562.362 82.8484 561.872C81.1584 562.662 79.4484 563.382 77.6984 564.022C75.9484 564.662 74.4484 565.132 72.7884 565.592C72.0084 565.802 71.2284 566.002 70.4384 566.182C69.9684 566.292 69.4884 566.382 69.0184 566.482C70.0184 566.262 68.5184 566.572 68.4484 566.582C64.7613 567.191 61.0239 567.442 57.2884 567.332C56.4684 567.332 55.6584 567.262 54.8484 567.212C56.0584 567.292 54.4484 567.212 54.3184 567.152C53.8384 567.102 53.3184 567.052 52.8684 566.982C51.0184 566.752 49.1784 566.422 47.3584 565.982C45.6984 565.602 44.0584 565.162 42.4384 564.642L41.0584 564.172C42.1984 564.572 40.6884 564.032 40.5684 563.982C39.6584 563.632 38.7684 563.262 37.8784 562.862C36.2584 562.129 34.6784 561.325 33.1384 560.452C32.4384 560.052 31.7484 559.632 31.0684 559.202L29.8484 558.402C29.3384 558.052 29.3184 558.042 29.7784 558.402L28.9884 557.832C26.2227 555.757 23.6701 553.412 21.3684 550.832C20.3684 549.722 21.9984 551.652 21.0784 550.482L20.2384 549.422C19.7784 548.822 19.3284 548.212 18.8984 547.592C17.8656 546.109 16.911 544.574 16.0384 542.992C15.6784 542.332 15.3284 541.652 15.0384 540.992C14.3684 539.662 15.4384 541.992 14.8484 540.572C14.6684 540.162 14.4784 539.752 14.3084 539.332C13.6063 537.665 12.9921 535.963 12.4684 534.232C12.0284 532.782 11.6784 531.322 11.3384 529.852C10.9984 528.382 11.4984 530.902 11.2584 529.422C11.1784 528.982 11.1084 528.532 11.0384 528.092C10.9084 527.192 10.7984 526.302 10.7184 525.402C10.5684 523.762 10.4984 522.112 10.5084 520.462C10.5084 519.642 10.5084 518.822 10.5884 517.992C10.5884 517.702 10.7184 516.682 10.5884 517.842C10.6484 517.242 10.7084 516.652 10.7884 516.052C10.997 514.419 11.3009 512.799 11.6984 511.202C11.8684 510.472 12.0684 509.752 12.2884 509.032C12.4084 508.602 12.5584 508.172 12.6884 507.742C13.1384 506.302 12.2884 508.792 12.8184 507.372C13.8184 504.802 13.3884 501.562 10.5884 500.262C8.26842 499.182 4.50844 499.732 3.47844 502.492" fill="#ED5B4E"/>
</svg>
